<svg width="118" height="113" viewBox="0 0 118 113" fill="none" xmlns="http://www.w3.org/2000/svg">
<path d="M63.3786 24.0867C64.5893 16.1506 70.3082 16.665 71.0762 18.7766C71.2641 20.1419 62.1439 27.1304 65.9179 20.653C61.2734 26.1548 64.8677 24.8066 66.3903 22.991C72.8474 15.2913 65.8028 17.8943 63.3786 24.0867Z" fill="white"/>
<path d="M45.6376 16.8763C41.8604 14.7881 26.4212 21.1702 43.094 20.9971C38.9142 26.3566 33.134 16.9079 40.5486 17.5454C45.3466 17.9579 38.6495 18.7345 42.803 20.6086C33.7576 17.563 46.3451 17.2674 45.6376 16.8763Z" fill="white"/>
<path d="M50.2358 21.3805C54.8071 21.0825 64.191 19.7486 55.3177 15.3366C40.8313 22.185 49.7269 22.7336 55.3156 17.5219C50.9772 23.326 48.9135 18.3215 51.3281 17.6666C59.3104 15.5016 57.6032 23.4577 50.2358 21.3805Z" fill="white"/>
<path d="M46.4518 21.9876C31.4093 19.2964 64.8908 7.37842 60.6558 21.4295C59.0173 13.8909 55.7899 14.7574 49.7785 17.2357C35.518 23.1149 58.845 22.5401 54.3293 22.7774C59.6706 21.246 49.1959 22.4785 46.4518 21.9876Z" fill="white"/>
<path d="M66.3724 35.6863C74.2784 38.3973 62.6108 49.0247 63.0428 27.1831C61.5297 37.7301 66.5758 39.9108 67.6237 38.3789C67.7747 38.1581 61.9591 24.9957 63.8483 23.9566C62.193 27.4028 64.9302 35.1917 66.3724 35.6863Z" fill="white"/>
<rect x="50.2422" y="74.4375" width="6.37406" height="5.81905" rx="2.90953" fill="white"/>
<path d="M86.5973 68.8703C86.8967 68.9133 87.1191 69.1698 87.1191 69.4723L87.1191 69.7351C87.1191 70.2383 86.7112 70.6463 86.2079 70.6463L86.1621 70.6463C85.8477 70.6463 85.5534 70.4919 85.3747 70.2333L85.1051 69.8431L84.6351 69.1506C84.613 69.118 84.5835 69.091 84.5491 69.0718V69.0718C84.304 68.9346 84.4307 68.5598 84.7088 68.5997L86.5973 68.8703Z" fill="white"/>
<path d="M47.0015 67.3614L87.5111 67.2344H88.4195L88.3064 72.4533L87.9227 72.5601V73.7356H46.6861L40.8047 72.9336L47.0015 67.3614Z" fill="white"/>
<path d="M22.3078 69.5718C22.538 68.6362 22.9167 67.7436 23.4295 66.9279L23.9923 66.0326L28.6247 60.2627L32.386 56.2433L33.0915 55.4735C33.5041 55.0234 33.9859 54.6421 34.5187 54.3439L34.5628 54.3192C34.9242 54.117 35.308 53.9578 35.7064 53.8449V53.8449C36.1175 53.7284 36.5413 53.6619 36.9684 53.647L47.092 53.2944C47.7115 53.2728 48.2683 53.6699 48.4497 54.2627V54.2627V54.2627C48.5261 54.6158 48.5625 54.9764 48.5584 55.3376L48.4497 64.7981V66.8935L48.4401 67.7895C48.4324 68.5133 47.869 69.1093 47.1468 69.1578V69.1578C46.2732 69.2164 45.5647 68.4604 45.6798 67.5924L47.3104 55.3006V55.3006C47.3104 54.9293 47.0094 54.6282 46.638 54.6282H44.1711H40.495H37.8178L36.7993 54.7414C36.485 54.7763 36.1771 54.8557 35.8851 54.9771V54.9771C35.3742 55.1894 34.924 55.5252 34.5748 55.9544L29.7726 61.8568L27.9491 64.2213C27.7733 64.4492 27.7102 64.7444 27.7774 65.0243V65.0243C27.8296 65.2415 27.9565 65.4333 28.1359 65.5663L28.3335 65.7127C28.6139 65.9205 28.9536 66.0326 29.3026 66.0326H29.3938H30.6484C31.9145 66.0326 33.1609 65.719 34.2762 65.1196V65.1196L35.1067 64.7981L35.7774 64.6282L36.2505 64.5231L46.4078 63.2724C47.134 63.1829 47.7974 63.6935 47.8968 64.4185L48.0068 65.22C48.0742 65.7114 47.6476 66.1282 47.1579 66.0496L39.5186 64.8227C39.3712 64.799 39.3886 64.5817 39.5378 64.5817V64.5817L43.9376 64.3385L48.1422 63.5646L46.9723 63.8434C45.4362 64.2094 45.3423 66.3597 46.8406 66.8583V66.8583C46.911 66.8817 46.9796 66.9101 47.046 66.9432L47.0987 66.9695C47.9243 67.3818 48.4401 68.2312 48.4251 69.1539L48.2461 80.1332C48.2351 80.8096 47.7593 81.3892 47.098 81.5319V81.5319C46.9972 81.5536 46.8943 81.5646 46.7912 81.5646H43.8498H43.6505V81.5646C43.485 81.5646 43.3508 81.4304 43.3508 81.2649V80.8567L43.2346 80.0291L43.0928 79.4925L42.8852 78.9362L42.6285 78.314L42.406 77.9105L42.0356 77.303L41.6652 76.7883V76.7883C41.4555 76.5283 41.2182 76.2919 40.9573 76.0833L40.7581 75.924L40.7494 75.9182C40.3764 75.6701 39.9786 75.4615 39.5625 75.2956V75.2956L38.9182 75.0976L38.1322 74.9154L37.8341 74.8723C37.4872 74.8221 37.1372 74.7969 36.7867 74.7969V74.7969C36.4096 74.7969 36.0331 74.826 35.6605 74.8841L35.1746 74.9599C34.8373 75.0125 34.5054 75.0951 34.1828 75.2068L34.1551 75.2164C33.8244 75.3309 33.5055 75.4771 33.203 75.653V75.653C32.7876 75.8946 32.4062 76.1902 32.0687 76.5321L31.7385 76.8665L31.628 77.008C31.4255 77.267 31.2422 77.5405 31.0794 77.8262V77.8262L30.8667 78.2125L30.5696 78.7748L30.3239 79.4179L30.2029 79.8641L30.1345 80.1582C30.0815 80.3856 30.0456 80.6166 30.0271 80.8494V80.8494V80.8494C29.9677 81.2495 29.9724 81.6564 30.0412 82.055L30.0831 82.2981L30.0966 82.6322C30.1008 82.7357 29.962 82.7733 29.9134 82.6819V82.6819V82.6819C29.5841 82.176 29.0476 81.8418 28.4482 81.7695L27.642 81.6721L26.2607 81.5875C26.012 81.5723 25.7624 81.5854 25.5168 81.6268V81.6268C25.3372 81.657 25.1554 81.6721 24.9733 81.6721H24.0447C23.9619 81.6721 23.8811 81.6464 23.8135 81.5984V81.5984C23.7819 81.576 23.7537 81.549 23.7298 81.5184L23.4182 81.1191C23.2281 80.8754 23.1248 80.5752 23.1248 80.2661V80.2661C23.1248 80.0135 23.0558 79.7657 22.9252 79.5494L22.8193 79.3741C22.7106 79.194 22.6292 78.9988 22.5779 78.7948L22.5031 78.4972C22.4525 78.2963 22.417 78.0919 22.3968 77.8857L22.3078 76.9766L22.3078 74.5176C22.3078 74.2431 22.4955 74.0041 22.7621 73.939L22.8785 73.9106C22.9079 73.9034 22.9349 73.8882 22.9563 73.8668V73.8668C23.0381 73.7853 23.0139 73.6473 22.9093 73.5985L22.5039 73.4094C22.3792 73.3513 22.2856 73.2424 22.2469 73.1105L22.2106 72.9873C22.1901 72.9174 22.1797 72.8449 22.1797 72.7721V71.2158V71.2158C22.1797 70.7118 22.2159 70.2083 22.2879 69.7095L22.3078 69.5718V69.5718Z" fill="white"/>
<path d="M58.652 79.379C58.652 79.379 59.7828 79.1821 60.2437 79.0954C60.7046 79.0086 63.1386 78.4254 63.1386 78.4254L78.0945 75.1184H69.077L68.9515 75.154L70.9674 74.5819L71.3757 74.4426L71.6886 74.3765L72.0847 74.3264H72.4686H72.7534H73.1177H74.9001L86.3903 74.2555L86.1739 74.2568L85.8451 74.9707L86.2681 74.3374L86.0187 74.9707L86.3903 74.4267L86.4441 74.5159L86.5272 74.6895L86.6067 74.8594L86.6434 74.923L86.4759 74.9707L86.6385 75.055L86.6544 75.0856L86.6385 75.1003L86.6116 75.2237C86.6116 75.2237 86.6045 75.2529 86.5994 75.2714C86.5936 75.2921 86.5835 75.324 86.5835 75.324L86.5468 75.445L86.5113 75.5367L85.7815 74.923L86.3903 75.8655L85.4539 75.1675L86.328 75.9707L78.4967 75.9743H76.0835L85.0676 75.5367L86.6544 75.445V80.5966L86.5113 81.4217L86.2681 81.6161L86.0187 81.89H76.0835L78.6324 76.7225L73.9723 77.1675L73.5419 77.2726L73.2461 77.3826L73.0224 77.5245L72.8231 77.6944L72.1776 78.2885L71.9099 78.6296L71.4075 79.5196L71.2094 79.956L71.1043 80.346L71.0163 80.9768L70.9674 81.6161V82.132L71.0163 82.4792L70.7192 82.665H70.4099L70.2558 82.3056L69.5786 82.0134L69.0371 80.8288L69.1911 80.4144L69.5786 79.3142L70.0774 78.0917V77.0672L70.185 77.5685L70.4099 77.4291L70.5737 77.2726L72.5762 77.0672L73.4808 77.6443L75.5089 78.7836L74.1813 79.72L74.0542 80.346L73.1177 80.0269L74.0542 79.9303L70.0774 78.0917L63.9711 79.4841L63.8647 79.5171V79.5403L63.8537 79.1565H64.1544L64.6752 79.0954L64.8341 79.2873L66.3231 79.8887L67.619 80.346L68.1899 80.533L68.6605 80.6993L69.0371 80.8288L70.0823 81.89L70.2558 82.3056L73.5493 83.5208L65.152 80.6993C65.152 80.6993 70.9295 82.4474 69.3879 82.132C67.8464 81.8166 66.9258 81.5269 66.9258 81.5269L66.5701 81.4217L62.6007 80.1392L58.8855 80.5416L60.5933 79.6675L60.3782 79.4315L63.1386 80.0269L58.2083 81.0562L57.0689 81.4217L57.2102 81.3764L62.0823 79.5171L75.7583 81.89L73.2803 82.8215L51.0053 82.3997H42.7303L42.0078 80.3435L44.1154 80.7604H44.6007H45.0885H46.5775H47.2792L47.7951 80.709L48.2975 80.5416L48.5212 80.346L48.6594 80.0941L48.6899 79.72V78.9841V78.5073V77.676V74.7812L48.8061 74.6871L49.1924 74.1993L48.8782 73.3069L49.2731 72.9536L49.3843 71.3203L50.3256 71.4633V72.6651L49.7584 72.4988L49.8513 72.0734V74.4169L49.7584 78.4254V78.8753V79.72L49.7474 80.511L49.8513 80.709L49.9723 80.7946L50.1973 80.846H52.0017H53.3342H54.2865H55.1545H55.4454H55.6117L55.855 80.7775L55.9723 80.6308L56.0518 80.4499L56.0933 80.2665L56.1141 79.7042L56.8537 79.643L57.5836 79.5672L57.8672 79.5171L58.652 79.379Z" fill="white"/>
<path d="M83.8228 82.3606C83.8228 85.7742 81.0555 88.5415 77.6418 88.5415C74.2282 88.5415 71.4609 85.7742 71.4609 82.3606C71.4609 78.947 74.2282 76.1797 77.6418 76.1797C81.0555 76.1797 83.8228 78.947 83.8228 82.3606Z" fill="white"/>
<circle cx="36.7747" cy="82.5325" r="6.18091" fill="white"/>
<path d="M84.0156 74.1719H88.0009V74.7257V75.4482L88.0975 76.112L88.1855 76.7073L88.2674 77.2354L88.0975 77.3308L87.1696 76.5716L86.5474 76.112L86.276 75.9494L85.6672 75.8589H85.0719H84.0156V74.1719Z" fill="white"/>
<path d="M49.2264 74.2492L86.6725 74.1747V75.2798H48.1213L47.8047 74.3813V73.4375H49.0015L49.2264 74.2492Z" fill="white"/>
<rect x="56.6172" y="75.2812" width="1.44743" height="4.88752" fill="white"/>
<rect x="62.9297" y="74.1797" width="1.68948" height="4.88752" fill="white"/>
<rect x="70.6016" y="74.7891" width="1.87285" height="2.63324" fill="white"/>
<path d="M31.5612 62.6015C31.9495 63.8195 30.8129 65.8863 28.5895 65.8863C27.8183 65.8863 27.9272 65.5793 27.9271 65.4635C28.1192 63.063 29.009 62.1794 29.4139 62.1094C29.7931 62.0438 31.4987 62.4052 31.5612 62.6015Z" fill="white"/>
<rect x="66.375" y="48.3203" width="2.88263" height="2.35452" fill="white"/>
<path d="M67.7245 47.342L70.1499 46.9081L70.9868 48.935L64.6641 48.8751L65.3834 46.8359L67.7245 47.342Z" fill="white"/>
<ellipse cx="67.7203" cy="47.2317" rx="1.87652" ry="0.481661" fill="white"/>
<g filter="url(#filter0_d_84_83)">
<path d="M65.0052 11.5987C70.1614 19.0889 112.213 36.2472 81.6812 17.2336C81.6812 17.2336 86.5653 24.9132 80.3108 21.5335C48.3669 4.2721 89.5873 19.0667 66.2201 23.456C103.422 24.1111 64.7867 11.2812 65.0052 11.5987Z" fill="white"/>
<path d="M81.4112 21.4226C81.3842 21.4412 81.356 21.4596 81.3267 21.478C81.1731 21.4059 81.0191 21.3332 80.8647 21.2598C80.7633 21.2081 80.658 21.1527 80.5485 21.0936C77.7897 19.6028 75.5802 18.353 73.8303 17.3166C73.5829 16.8566 73.2546 16.4241 72.8932 16.0297C72.1403 15.2082 71.1856 14.4887 70.3115 13.9501C70.2912 13.9376 70.271 13.9252 70.2508 13.9129C73.2371 15.0552 76.7959 16.5785 79.2179 18.079C80.4573 18.8468 81.3243 19.5645 81.7016 20.1722C81.8838 20.4656 81.9185 20.6798 81.888 20.837C81.8582 20.9905 81.746 21.1931 81.4112 21.4226ZM72.504 21.8196C73.7177 21.0003 74.2836 20.0356 74.2901 19.004C76.1704 20.051 78.1556 21.0709 80.0976 22.0017C79.303 22.2452 78.2188 22.46 76.7828 22.6248C75.0537 22.8233 72.8519 22.9461 70.0982 22.9741C71.0949 22.6224 71.8881 22.2354 72.504 21.8196ZM67.5055 12.9079C67.3971 12.9441 67.2697 13.0145 67.1842 13.1481C66.9553 12.954 66.7421 12.7642 66.5456 12.5793C66.8364 12.6766 67.1581 12.7866 67.5055 12.9079ZM83.6514 22.5357C83.8813 22.2989 83.9721 21.9847 83.9918 21.6918C84.0169 21.3208 83.9376 20.9069 83.8212 20.5102C83.6468 19.9155 83.3616 19.2706 83.0772 18.7015C86.0183 20.5686 88.1611 22.0349 89.6401 23.1561C90.513 23.8179 91.1449 24.3522 91.5707 24.772C91.7836 24.9819 91.9378 25.1562 92.0432 25.2975C92.0679 25.3305 92.089 25.3606 92.1069 25.3876C91.9272 25.3907 91.6552 25.3646 91.2779 25.2906C90.2589 25.0907 88.7359 24.5987 86.9071 23.889C85.8957 23.4964 84.7983 23.0402 83.6514 22.5357ZM92.3133 25.3612C92.3134 25.3612 92.3124 25.3617 92.3102 25.3625C92.3122 25.3615 92.3133 25.3611 92.3133 25.3612Z" stroke="white"/>
</g>
<path d="M35.9026 16.3298C32.03 18.2673 73.3105 6.90658 61.9694 18.9663C74.8817 14.8256 51.6568 10.8647 52.5048 10.7689C75.3811 8.18317 58.2565 19.2346 55.8973 32.4523C73.3427 13.0821 52.5942 7.9785 35.9026 16.3298Z" fill="white"/>
<path d="M61.6174 101.432C-16.7674 101.432 -3.72827 18.7009 54.9038 10.7919C-7.09074 8.40303 -29.5849 112.773 61.6174 112.773C138.451 112.773 131.814 9.54884 65.307 11.6255C128.111 18.5732 126.161 101.432 61.6174 101.432Z" fill="white"/>
<path d="M67.9523 23.453C60.7445 26.5732 72.4754 36.5624 72.8987 42.9768C72.3133 46.2425 49.3958 40.0187 64.2397 22.2698C56.9561 37.0604 70.5355 48.194 71.8248 41.3635C72.3623 38.5159 57.6776 24.3141 67.9523 23.453Z" fill="white"/>
<path d="M63.8098 48.8475C55.6015 40.7865 83.5835 48.1305 71.506 49.294C82.0954 54.9249 64.1976 23.3023 66.319 25.9288C92.0717 57.8138 44.9368 40.4639 58.9605 32.0348C47.4049 38.9804 68.2329 53.1912 63.8098 48.8475Z" fill="white"/>
<path d="M67.9555 50.503C82.026 49.9706 77.965 62.0638 78.6224 68.5752C73.2962 58.3822 76.3861 57.4617 67.9555 57.1988C59.5248 56.9358 62.8429 59.8943 55.9916 68.576C56.0015 58.8798 55.4778 49.7733 67.9555 50.503Z" fill="white"/>
<path d="M56.2031 62.5859H78.6218L78.8847 70.9354L78.4245 72.579H56.2031V62.5859Z" fill="white"/>
<path d="M61.0043 63.3079C61.0043 65.083 60.0461 64.8543 60.1547 64.8686C59.3923 64.8686 59.4971 62.9562 59.4971 61.2497C59.4971 59.5431 60.492 54.6376 61.408 55.611C64.3007 57.3858 60.4126 57.5224 61.0043 63.3079Z" fill="white"/>
<path d="M77.0493 60.2147C77.2855 62.5994 76.3347 64.6458 74.9255 64.7853C73.5163 64.9249 75.4887 67.7323 75.2524 65.3476C76.4328 53.997 65.9913 52.5916 74.0701 56.1494C75.4792 56.0099 76.8131 57.8299 77.0493 60.2147Z" fill="white"/>
<defs>
<filter id="filter0_d_84_83" x="61.0078" y="11.5938" width="35.6953" height="22.2969" filterUnits="userSpaceOnUse" color-interpolation-filters="sRGB">
<feFlood flood-opacity="0" result="BackgroundImageFix"/>
<feColorMatrix in="SourceAlpha" type="matrix" values="0 0 0 0 0 0 0 0 0 0 0 0 0 0 0 0 0 0 127 0" result="hardAlpha"/>
<feOffset dy="4"/>
<feGaussianBlur stdDeviation="2"/>
<feComposite in2="hardAlpha" operator="out"/>
<feColorMatrix type="matrix" values="0 0 0 0 0 0 0 0 0 0 0 0 0 0 0 0 0 0 0.25 0"/>
<feBlend mode="normal" in2="BackgroundImageFix" result="effect1_dropShadow_84_83"/>
<feBlend mode="normal" in="SourceGraphic" in2="effect1_dropShadow_84_83" result="shape"/>
</filter>
</defs>
</svg>
